<svg id="visual" viewBox="0 0 900 600" width="900" height="600" xmlns="http://www.w3.org/2000/svg" xmlns:xlink="http://www.w3.org/1999/xlink" version="1.1"><rect width="900" height="600" fill="#b01d1d"></rect><g><g transform="translate(399 515)"><path d="M0 -71.4L61.9 -35.7L61.9 35.7L0 71.4L-61.9 35.7L-61.9 -35.7Z" fill="#c71a1f"></path></g><g transform="translate(879 408)"><path d="M0 -66L57.2 -33L57.2 33L0 66L-57.2 33L-57.2 -33Z" fill="#c71a1f"></path></g><g transform="translate(91 242)"><path d="M0 -54L46.8 -27L46.8 27L0 54L-46.8 27L-46.8 -27Z" fill="#c71a1f"></path></g><g transform="translate(559 119)"><path d="M0 -64L55.4 -32L55.4 32L0 64L-55.4 32L-55.4 -32Z" fill="#c71a1f"></path></g><g transform="translate(874 567)"><path d="M0 -22L19.1 -11L19.1 11L0 22L-19.1 11L-19.1 -11Z" fill="#c71a1f"></path></g><g transform="translate(703 186)"><path d="M0 -46L39.8 -23L39.8 23L0 46L-39.8 23L-39.8 -23Z" fill="#c71a1f"></path></g><g transform="translate(671 326)"><path d="M0 -66L57.2 -33L57.2 33L0 66L-57.2 33L-57.2 -33Z" fill="#c71a1f"></path></g><g transform="translate(305 361)"><path d="M0 -46L39.8 -23L39.8 23L0 46L-39.8 23L-39.8 -23Z" fill="#c71a1f"></path></g><g transform="translate(362 119)"><path d="M0 -39L33.8 -19.5L33.8 19.5L0 39L-33.8 19.5L-33.8 -19.5Z" fill="#c71a1f"></path></g><g transform="translate(62 450)"><path d="M0 -36L31.2 -18L31.2 18L0 36L-31.2 18L-31.2 -18Z" fill="#c71a1f"></path></g><g transform="translate(574 434)"><path d="M0 -52L45 -26L45 26L0 52L-45 26L-45 -26Z" fill="#c71a1f"></path></g><g transform="translate(741 42)"><path d="M0 -17L14.7 -8.5L14.7 8.5L0 17L-14.7 8.5L-14.7 -8.5Z" fill="#c71a1f"></path></g><g transform="translate(110 593)"><path d="M0 -38L32.9 -19L32.9 19L0 38L-32.9 19L-32.9 -19Z" fill="#c71a1f"></path></g><g transform="translate(688 557)"><path d="M0 -55L47.6 -27.5L47.6 27.5L0 55L-47.6 27.5L-47.6 -27.5Z" fill="#c71a1f"></path></g><g transform="translate(544 589)"><path d="M0 -35L30.3 -17.5L30.3 17.5L0 35L-30.3 17.5L-30.3 -17.5Z" fill="#c71a1f"></path></g><g transform="translate(107 18)"><path d="M0 -65L56.3 -32.5L56.3 32.5L0 65L-56.3 32.5L-56.3 -32.5Z" fill="#c71a1f"></path></g><g transform="translate(888 38)"><path d="M0 -42L36.4 -21L36.4 21L0 42L-36.4 21L-36.4 -21Z" fill="#c71a1f"></path></g><g transform="translate(447 297)"><path d="M0 -31L26.8 -15.5L26.8 15.5L0 31L-26.8 15.5L-26.8 -15.5Z" fill="#c71a1f"></path></g><g transform="translate(232 185)"><path d="M0 -45L39 -22.5L39 22.5L0 45L-39 22.5L-39 -22.5Z" fill="#c71a1f"></path></g><g transform="translate(238 499)"><path d="M0 -31L26.8 -15.5L26.8 15.5L0 31L-26.8 15.5L-26.8 -15.5Z" fill="#c71a1f"></path></g><g transform="translate(888 227)"><path d="M0 -19L16.5 -9.5L16.5 9.5L0 19L-16.5 9.5L-16.5 -9.5Z" fill="#c71a1f"></path></g></g></svg>