<svg id="Layer_2" data-name="Layer 2" xmlns="http://www.w3.org/2000/svg" xmlns:xlink="http://www.w3.org/1999/xlink" viewBox="0 0 400 300" data-imageid="clean-inbox-b" imageName="New Message" class="illustrations_image" style="width: 178px;"><defs><linearGradient id="linear-gradient" x1="168.66" y1="257.88" x2="228.67" y2="201.42" gradientUnits="userSpaceOnUse"><stop offset="0" stop-opacity="0"/><stop offset="0.99" stop-color="#552800"/></linearGradient><linearGradient id="linear-gradient-2" x1="287.69" y1="204.97" x2="309.84" y2="184.13" xlink:href="#linear-gradient"/></defs><title>PP</title><path d="M21.33,166.12,177.55,77.21a25.05,25.05,0,0,1,25,.13l161,93.75a13.92,13.92,0,0,1-.07,24.11L213.23,281.47a33.57,33.57,0,0,1-33.46,0L21.28,190.29A13.92,13.92,0,0,1,21.33,166.12Z" fill="#5e5294"/><path d="M186.43,265.38l8.35-5.65,60.5-50L241,203.6c-8.59,2.3-24,9-32,12.65-11.81,5.44-23.77,10.37-35.87,15.13q-10.05,4-20.13,7.88C165,246.81,175.8,256,186.43,265.38Z" opacity="0.32" fill="url(#linear-gradient)"/><polyline points="247.57 216.61 235.48 211.27 235.48 118.94 251.36 113.27" fill="#7f1d18"/><polyline points="255.14 101.27 255.14 209.94 247.57 216.61 247.57 111.94" fill="#aa3529"/><path d="M183.39,123.87V83.66S182.33,76.52,195,70.17s54.76-30.95,54.76-30.95,20.63-3.7,31.74,26.45a59.73,59.73,0,0,1,3.7,15.8V113l-61.11,33.86Z" fill="#f9b246"/><path d="M185.75,121V83.13s1.32-10.58,12.17-6.88S220.13,94.5,222.51,108v34.12l-35.45-20.63" fill="#e98669"/><rect x="235.48" y="48.74" width="3.44" height="71.42" rx="1.72" ry="1.72" fill="#aa3529"/><path d="M238.92,48.74s23.54-2.38,25.13-2.12-25.13,25.66-25.13,25.66" fill="#aa3529"/><path d="M185.18,124.55l-23.81,28.83s-10.85,16.67,6.88,26.19,34.39-10.32,34.39-10.32L223,146Z" fill="#f9b246"/><path d="M183.1,123.87,159.29,152.7s-10.85,16.67,6.88,26.19,34.39-10.32,34.39-10.32l20.37-23.28Z" fill="#aa3529"/><path d="M217.94,95.25c-4.86-8.93-12.57-16.6-20-19.15C187.07,72.4,185.75,83,185.75,83v38C197.75,111.32,203.52,107.21,217.94,95.25Z" fill="#cd725f"/><polygon points="167.12 113.84 167.12 147.56 210.21 123.46 210.21 89 167.12 113.84" fill="#fd6868" class="target-color"/><polygon points="109.77 123.46 157.25 129.91 149.59 150.37 101.37 143.43 109.77 123.46" fill="#fd6868" class="target-color"/><path d="M62.66,172.28c1.1.73,9.13,7.91,9.13,7.91l23.74-11.93-9.86-8.77Z" fill="#fd6868" class="target-color"/><polygon points="90.05 198.94 104.3 211 127.31 177.39 112.33 165.34 90.05 198.94" fill="#fd6868" class="target-color"/><polygon points="130.96 193.83 145.57 209.17 175.15 169.84 159.19 155.4 130.96 193.83" fill="#fd6868" class="target-color"/><polygon points="167.12 113.84 192.07 118.28 210.21 89 167.12 113.84" fill="#fff"/><polygon points="109.77 123.46 127.31 135.63 157.25 129.91 109.77 123.46" fill="#fff"/><polygon points="62.66 172.28 80.19 169.84 85.67 159.5 62.66 172.28" fill="#fff"/><polygon points="90.05 198.94 108.68 188.17 112.33 165.34 90.05 198.94" fill="#fff"/><polygon points="130.96 193.83 153.06 182.14 159.19 155.4 130.96 193.83" fill="#fff"/><ellipse cx="261.88" cy="92.98" rx="17" ry="13.57" transform="translate(62.65 286.71) rotate(-63.74)" fill="#ffd7cb"/><path d="M267.16,83.68a5.73,5.73,0,0,1,2.22,4.88,10.41,10.41,0,0,1-1.16,5.06,6.2,6.2,0,0,1-3,3.13,1.37,1.37,0,0,1-1.82-.39,4,4,0,0,1-1.92,2,1.85,1.85,0,0,1-2.21-.42,4.53,4.53,0,0,1-1-3.13,8,8,0,0,1,.93-4.06,5,5,0,0,1,2.41-2.43,1.8,1.8,0,0,1,1.68.08l.11-.63,2-.82L265,93c0,.41,0,.76,0,1.07s.15.48.42.37a3.3,3.3,0,0,0,1.43-1.79,7.31,7.31,0,0,0,.63-3.26,4.28,4.28,0,0,0-1.64-3.68,3.79,3.79,0,0,0-3.8-.16,8.5,8.5,0,0,0-4,3.78,11.05,11.05,0,0,0-1.53,5.9,5.9,5.9,0,0,0,1.67,4.37q1.6,1.48,4.43.31A13.25,13.25,0,0,0,267,96.57l.75,1.85a15.19,15.19,0,0,1-5.15,3.76q-3.68,1.53-5.92-.34t-2.33-5.73a13.86,13.86,0,0,1,2.12-7.67,11.74,11.74,0,0,1,5.46-5C264,82.59,265.73,82.68,267.16,83.68Zm-4.35,10.72a5,5,0,0,0,.48-2.22,1.66,1.66,0,0,0-.46-1.28.89.89,0,0,0-1-.14,2.12,2.12,0,0,0-1,1.17,4.71,4.71,0,0,0-.38,2.09,3,3,0,0,0,.34,1.48.62.62,0,0,0,.82.31,2.58,2.58,0,0,0,1.23-1.4" fill="#aa3529"/><path d="M283.25,209.59c3.15,1,6.31,1.91,9.55,2.56a48.87,48.87,0,0,0,6,.69l3.36-2.28,23.25-17.29-17.78-5.91L265.55,202C270.74,205.84,277.17,207.73,283.25,209.59Z" opacity="0.32" fill="url(#linear-gradient-2)"/><path d="M316.1,174.48c-4.19-.36-8.61-1.63-11.71-4.5v12.44a12.91,12.91,0,0,0,12.91,12.91h0a12.91,12.91,0,0,0,12.91-12.91V169.77C325.79,171.56,320.8,174.89,316.1,174.48Z" fill="#fd6868" class="target-color"/><ellipse cx="317.29" cy="169.9" rx="12.91" ry="6.84" fill="#5ed18d"/><path d="M317.29,171.06s-8.78-1.29-11.1-15.49C306.19,155.57,313.68,159.7,317.29,171.06Z" fill="#5ed18d"/><path d="M318.58,169.25s-10.07-18.07,0-30.2A50.62,50.62,0,0,1,318.58,169.25Z" fill="#5ed18d"/><path d="M317.29,157.89s-8.78-1.29-11.1-15.49C306.19,142.41,313.68,146.54,317.29,157.89Z" fill="#5ed18d"/><path d="M318.36,163.68s-2.2-8.59,10-16.22C328.36,147.46,327.44,156,318.36,163.68Z" fill="#5ed18d"/><ellipse cx="317.29" cy="169.9" rx="12.91" ry="6.84" fill="#146666"/><path d="M317.29,171.06s-8.78-1.29-11.1-15.49C306.19,155.57,313.68,159.7,317.29,171.06Z" fill="#5ed18d"/><path d="M318.58,169.25s-10.07-18.07,0-30.2A50.62,50.62,0,0,1,318.58,169.25Z" fill="#5ed18d"/><path d="M317.29,157.89s-8.78-1.29-11.1-15.49C306.19,142.41,313.68,146.54,317.29,157.89Z" fill="#5ed18d"/><path d="M318.36,163.68s-2.2-8.59,10-16.22C328.36,147.46,327.44,156,318.36,163.68Z" fill="#5ed18d"/></svg>