<svg width="144" height="144" viewBox="0 0 144 144" fill="none" xmlns="http://www.w3.org/2000/svg">
<path d="M140.01 115.379C137.796 118.355 133.868 120.164 98.805 118.593C79.7381 117.736 77.8338 117.069 66.8126 117.283C55.2677 117.522 54.1727 118.307 41.9851 118.259C38.1288 118.236 41.7946 118.236 18.8 118.259C7.51697 118.259 6.4458 118.307 4.99376 117.188C-0.457343 113.023 3.61313 104.144 3.39889 83.2915C3.25607 70.2707 1.6136 69.2471 1.82783 54.9172C1.85164 53.4651 1.87544 52.1083 1.89925 50.7991C6.39819 50.3468 11.8731 50.0136 18.0859 50.0612C25.0843 50.1088 30.2259 50.6087 32.0588 50.7753C50.1022 52.4416 70.9068 51.2038 86.7364 50.7277C99.9714 50.3468 118.348 50.2516 141.462 51.4894C141.39 53.3937 141.295 55.4647 141.176 57.7022C140.843 64.3911 140.033 66.5335 140.081 74.1745C140.129 81.5776 140.938 83.7913 141.414 91.0277C142.342 104.786 142.795 111.666 140.01 115.379Z" fill="#262B2C"/>
<path d="M141.437 51.4889C118.3 50.2511 99.9472 50.3463 86.7122 50.7271C70.8826 51.1794 50.078 52.4172 32.0346 50.7748C30.2255 50.6081 25.0838 50.1082 18.0617 50.0606C11.8488 50.013 6.37394 50.3701 1.875 50.7986C2.06543 39.4203 2.44629 33.4217 5.517 30.3748C9.30183 26.59 13.8722 27.2327 44.9125 28.5657C54.8863 28.9942 59.9566 29.2084 64.2413 29.2798C77.1668 29.494 82.8084 28.9942 98.876 28.5895C132.678 27.7088 136.058 29.2084 138.295 31.9697C141.533 35.9449 141.818 41.7531 141.437 51.4889Z" fill="#ECD3EF"/>
<path d="M129.631 104.381C120.181 105.048 110.16 105.452 99.6384 105.524C91.5688 105.571 83.8326 105.405 76.4057 105.072C75.5726 99.2397 74.9299 92.6698 74.7395 85.4572C74.549 77.6257 74.9299 70.5083 75.5964 64.2479C78.3576 64.1765 82.4757 64.0575 87.4746 63.6766C93.5208 63.2243 97.9245 62.6768 99.0671 62.534C104.899 61.8437 114.492 61.5342 131.036 63.1053C130.941 70.2227 130.774 77.4829 130.512 84.8859C130.274 91.4796 129.988 98.0019 129.631 104.381Z" fill="#F4F4F4"/>
<path d="M64.8847 72.0315C57.7435 72.8885 49.9834 73.5312 41.652 73.7454C29.8453 74.0787 19.0383 73.5074 9.44531 72.5314C9.54053 69.9844 9.65955 67.4374 9.75476 64.9141C20.3713 65.176 28.8931 65.057 34.8203 64.9141C39.5335 64.7951 44.5799 64.5809 51.7211 64.8665C57.2912 65.1046 61.8378 65.533 64.8847 65.8901C64.8847 67.9134 64.8847 69.9844 64.8847 72.0315Z" fill="#ECD3EF"/>
<path d="M64.8841 85.6712C56.3622 85.814 48.6736 86.0997 42.0085 86.4567C37.2477 86.7186 35.4862 86.8614 32.2251 86.9804C23.7509 87.2661 16.086 86.8614 9.4209 86.1711C9.51611 83.6241 9.63513 81.0771 9.73035 78.5538C19.0139 78.3396 26.8692 78.2682 32.9154 78.2444C42.6036 78.1968 46.8883 78.2682 51.6967 78.5062C57.1716 78.7919 61.7181 79.1965 64.8602 79.5298C64.8841 81.5769 64.8841 83.6241 64.8841 85.6712Z" fill="#ECD3EF"/>
<path d="M9.75476 91.7892C15.8962 91.6464 21.4187 91.575 26.2033 91.5273V100.311C20.1095 100.287 14.4917 99.9539 9.44531 99.4302C9.54053 96.8832 9.63574 94.3362 9.75476 91.7892Z" fill="#ECD3EF"/>
<path d="M64.8839 92.764V98.9054C56.3621 99.0482 48.6734 99.3338 42.0083 99.6909C39.9612 99.8099 38.4616 99.8813 37.1523 99.9766V91.4547C43.9841 91.4309 47.6737 91.5262 51.6965 91.7404C57.1952 92.026 61.7418 92.4307 64.8839 92.764Z" fill="#ECD3EF"/>
<path d="M103.59 77.078C101.971 75.007 100.376 72.9361 98.7573 70.8652C97.3053 69.1751 95.8294 67.485 94.3774 65.7949C95.2581 68.7942 96.1389 71.7697 97.0196 74.769C97.5671 76.3163 98.1146 77.8635 98.6621 79.387C96.5436 79.3156 94.4488 79.2203 92.3303 79.1489C90.0927 79.2679 87.8313 79.4108 85.5938 79.5298C87.7837 80.4343 89.9499 81.3389 92.1398 82.2672C93.8537 83.0528 95.5914 83.8383 97.3053 84.6C95.5914 85.814 93.8775 87.028 92.1636 88.2658C90.7592 89.575 89.331 90.8843 87.9265 92.1935C92.0922 90.9795 96.2579 89.7417 100.424 88.5277C101.638 92.9076 102.852 97.2875 104.089 101.667C104.589 98.7157 105.065 95.7641 105.565 92.8362L106.279 87.8374C108.922 88.7895 111.54 89.7417 114.182 90.6938C116.158 91.5508 118.158 92.3839 120.133 93.2408C116.658 89.0752 113.159 84.9095 109.683 80.7438C110.921 79.4584 112.159 78.1492 113.421 76.8637C114.992 74.8166 116.539 72.7695 118.11 70.7223C113.254 72.8171 108.422 74.9594 103.59 77.078Z" fill="#FA0018"/>
<path d="M22.2988 40.826C21.6561 42.6827 19.728 45.3964 16.6335 45.3011C13.8246 45.2059 11.3966 42.8493 11.1824 40.0405C10.9205 36.7079 13.8484 34.1133 16.7287 33.8515C18.7758 33.661 21.2752 34.637 22.275 36.7555C23.0843 38.5408 22.4892 40.2785 22.2988 40.826Z" fill="#FA0018"/>
<path d="M37.2242 39.8724C37.0099 42.2766 34.8914 43.6572 34.1773 44.1333C33.4631 44.5855 32.3205 45.3473 30.8447 45.252C28.3453 45.1092 26.0839 42.6336 25.8221 39.9438C25.7983 39.5867 25.6078 37.3253 27.2741 35.5877C28.9404 33.85 31.5826 33.5405 33.6298 34.3975C35.7483 35.302 37.4384 37.5158 37.2242 39.8724Z" fill="#F4F4F4"/>
<path d="M51.9116 39.8727C51.9354 42.2769 49.9835 43.8955 49.8169 44.0384C49.5074 44.2764 48.6029 44.9905 47.3651 45.181C44.6514 45.5856 40.6523 43.3957 40.6523 39.8489C40.6523 36.8972 43.4374 34.3264 46.5081 34.4454C49.5074 34.5882 51.8878 37.2304 51.9116 39.8727Z" fill="#4E02C6"/>
</svg>
