<svg width="144" height="144" viewBox="0 0 144 144" fill="none" xmlns="http://www.w3.org/2000/svg">
<path d="M58.236 95.095c.048 1.07-4.427 4.38-7.855 11.568-.904 1.881-1.928 4.428-2.642 6.308l-.071.072c-3.261.428-8.213 1.428-13.616 4.165-3.261 1.667-5.594 3.404-8.141 5.38-.072-1.642-.381-3.094-1.167-3.928-.976-1.023-2.88-1.523-4.903-1.737 3.285-3.547 6.498-9.141 8.117-18.234a45.375 45.375 0 005.308-2.071c3.69-1.714 6.665-3.69 8.784-5.19 2.023-1.451 3.237-2.427 3.404-2.213.19.214-1.238 1.619-2.904 4.166a28.813 28.813 0 00-2.357 4.332c-1.523 3.499-.976 4.142-.833 4.261.786.785 3.047-.429 5.999-1.904 4.903-2.452 9.188-4.57 11.354-5.166.762-.214 1.262-.214 1.428 0 .072.072.096.12.096.19z" fill="#F9F3EF"/>
<path d="M118.103 46.152c-9.664 9.427-18.995 19.282-29.493 27.756-10.33 8.331-24.803 21.042-40.87 39.062.713-1.881 1.737-4.428 2.641-6.308 3.666-7.665 8.474-10.902 7.784-11.76-.69-.856-6.189 1.881-12.806 5.166-2.952 1.476-5.19 2.69-5.999 1.905-.143-.143-.69-.786.833-4.261 2.357-5.332 5.57-8.165 5.26-8.498-.356-.405-4.95 4.07-12.187 7.427a45.382 45.382 0 01-5.308 2.07c3.69-3.88 9.165-9.569 15.853-16.377 27.66-28.065 27.327-25.327 46.846-45.013 3.952-3.975 7.38-7.546 10.45-10.712.096.072.167.12.191.167.619.5 1.5 1.404 2.523 2.57.762.882 1.619 1.905 2.523 3.024 1.928 2.357 4.118 5.118 6.308 7.736.643.762 1.286 1.524 1.905 2.238a64.126 64.126 0 003.546 3.808zm-92.168 76.435c-.143.119-.31.238-.452.357-3.904 2.999-7.26 6.118-11.64 10.212-4.904 4.594-7.523 7.284-9.141 6.498-.976-.476-1.38-2.095-1.619-3.118 0 0-.476-1.857-.071-3.833.88-4.379 10.64-10.354 14.473-13.52a22.825 22.825 0 002.38-2.238c2.023.215 3.928.714 4.904 1.738.785.809 1.094 2.261 1.166 3.904z" fill="#007B66"/>
<path d="M129.816 35.227c-3.952-5.404-12.854-13.64-17.687-19.567-.023-.024-.047-.072-.095-.095 6.57-6.166 10.998-8.689 16.211-7.641 5.236 1.047 10.354 5.498 11.259 10.497 1.119 6.165-4.451 12.021-9.688 16.806z" fill="#F9F3EF"/>
<path d="M114.534 42.32c-5.332 4.38-13.807 11.568-19.567 17.757-7.141 7.665-28.303 27.232-36.753 35.016a.27.27 0 00-.072-.19c-.19-.215-.69-.191-1.428 0A6538.105 6538.105 0 0175.78 73.668c6.617-7.331 26.66-24.827 36.824-33.587.667.762 1.31 1.523 1.929 2.238z" fill="#DB0032"/>
<path d="M129.815 35.226c-3.952-5.403-12.854-13.64-17.687-19.567-.023-.024-.047-.071-.095-.095-.595-.738-2.094-2.5-3.38-2.19-.714.167-1.119.928-1.214 1.119 0 0-.405.81.405 4.07 0 0-1.976-1.19-3.571-1.19-.738 0-1.38.262-1.714.976-.952 2.07 1.31 3.142 1.809 3.356-1.999-.761-3.856-.404-4.522.667-.476.738-.262 1.714-.238 1.904.238 1.19 1.071 1.976 1.499 2.333.095.071.167.119.191.167.619.5 1.499 1.404 2.523 2.57a118.71 118.71 0 012.523 3.024c1.928 2.356 4.118 5.117 6.308 7.736.643.761 1.286 1.523 1.904 2.237 1.238 1.429 2.428 2.738 3.547 3.833 2.357 2.309 4.309 3.666 5.38 3.07.5-.285.881-1.047 1.047-1.713.429-1.833-.976-3.476-1.047-3.547.095.047 4.642 1.88 4.642-.214 0-2.119-1.048-3.547-1.048-3.547 2.904.88 3.999.523 4.452 0 .714-.976-.072-2.738-1.714-4.999z" fill="#003163"/>
<path d="M106.345 32.348c-3.214 3.237-8.903 8.879-13.235 12.687-5.784 5.094-43.633 41.657-50.536 48.346 1.666-2.547 3.118-3.928 2.904-4.166-.19-.19-1.38.786-3.404 2.214 2.88-3.69 10.879-12.545 16.163-18.258 5.594-6.046 36.468-35.253 45.585-43.87.761.904 1.594 1.928 2.523 3.047z" fill="#DB0032"/>
</svg>
