<svg xmlns="http://www.w3.org/2000/svg" xmlns:xlink="http://www.w3.org/1999/xlink" viewBox="0 0 400 300" data-imageid="waiter-4" imageName="Teacher" class="illustrations_image" style="width: 178px;"><defs><linearGradient id="linear-gradient" x1="247.66" y1="237.76" x2="203.02" y2="274.11" gradientUnits="userSpaceOnUse"><stop offset="0" stop-color="#d4a397"/><stop offset="1" stop-color="#fff"/></linearGradient><linearGradient id="linear-gradient-2" x1="123.78" y1="139.62" x2="82.82" y2="172.96" xlink:href="#linear-gradient"/></defs><title>PP</title><g style="isolation:isolate"><g id="Layer_2" data-name="Layer 2"><path d="M196.24,288.6,23.74,186.65c-5.49-3.08-10.2-8.15-4.85-11.46L192,75.41c2.6-1.61,6.54-2.66,9.18-1.13L382.28,179.37c5.49,3.19,6.48,12.1,1,15.29L219,288.44A22.94,22.94,0,0,1,196.24,288.6Z" fill="#f9d8a3"/><path d="M224,248.87l-36.94,19.74s16.35,9.15,24.07,12.39L245,258.38" fill="url(#linear-gradient)" style="mix-blend-mode:multiply"/><path d="M307.81,92.67l-137.89-78v87.93a6.58,6.58,0,0,0,3.34,5.73L298,178.88a6.58,6.58,0,0,0,9.82-5.73Z" fill="#fd6868" class="target-color"/><path d="M300.23,178.85l-87.71-49.64c-12.57-7.11-26-13.54-38.06-21.54-4-2.66-3.41-6.22-3.41-10.38V14.64l-1.69,1L258,65.79l44.79,25.35c1.31.74,2.61,1.55,4,2.24.85.44.06.26-.1-.65a7.5,7.5,0,0,1,0,1.77c-.69,7.79,0,16,0,23.78v52.09c0,3.65.65,11.55-6.45,8.48-1.32-.57-2.46,1.37-1.14,1.94,5.71,2.46,9.71-1.54,9.84-7.1s0-11.12,0-16.67V92.67a1.13,1.13,0,0,0-.56-1l-121-68.48-16.87-9.55a1.14,1.14,0,0,0-1.69,1V93.43c0,4.66-1.36,11.8,2.75,15.08,2.65,2.12,6.1,3.56,9,5.23l22.16,12.54,58.7,33.22,37.65,21.3A1.13,1.13,0,0,0,300.23,178.85Z" fill="#603813"/><path d="M167.94,98.43c-1.64-.07-7.86,2.79-7.86,2.79v7.41l142.7,80.23s6.45-3.41,6.45-4.53-1-8.22-1-8.22Z" fill="#e09a34"/><path d="M103.38,154.09l-33.3,16.17a102,102,0,0,0,15.46,8.55l33.93-22.62" fill="url(#linear-gradient-2)" style="mix-blend-mode:multiply"/><path d="M124.18,97.69a2.93,2.93,0,0,0-1.49.12c-1.27,2.29-2.57,4.57-3.8,6.88l-2.31,5.62c-.57,1.39-1.16,2.77-1.69,4.17-.94,3.3-1.59,6.68-2.27,10a2.92,2.92,0,0,0,1.57,1c1.29-1.73,3.17-2.63,5-3.92a19.51,19.51,0,0,0,5.82-7.39,22.24,22.24,0,0,0,1.36-3.42c.2-1.22.37-2.44.5-3.68A73.76,73.76,0,0,1,124.18,97.69Z" fill="#1b896c"/><path d="M100.21,123.31a.88.88,0,0,1-.2-.29c-1.43-.71-2.87-1.4-4.34-2-.45-.34-.91-.65-1.38-1a.79.79,0,0,1-.63.26,37.5,37.5,0,0,1-6.35-.71,2.57,2.57,0,0,0-.22.56,16.51,16.51,0,0,1,3.71,7.73c.4.46.84,1,1.31,1.45,2.1.83,5,.65,7.37,1a4.07,4.07,0,0,0,.27-.76l.1,0a18.79,18.79,0,0,1,2.35,1.05,9.48,9.48,0,0,1,4.35,1.8,3,3,0,0,0,.95-.59C105,129,102.88,125.95,100.21,123.31Z" fill="#1b896c"/><path d="M99.92,141.86l3,14.1a3.17,3.17,0,0,0,1.7,2.18c1.76.86,5.38,1.76,12.28.51a3.19,3.19,0,0,0,2.55-2.46l3.1-14.34" fill="#fd6868" class="target-color"/><ellipse cx="111.24" cy="141.86" rx="11.32" ry="4.64" fill="#56403d"/><path d="M126.82,106.95c-.27-3.41-2.51-6.46-2.17-9.9.06-.64-.81-.74-1.11-.3a68.05,68.05,0,0,0-11.12,28.85.61.61,0,0,0-.06.42,68,68,0,0,0-.42,13.92,8.65,8.65,0,0,0,1.18-.19,67.17,67.17,0,0,1,.44-13.66c2-2.39,4.86-3.52,7.29-5.42a15.52,15.52,0,0,0,4.68-6.1A16.14,16.14,0,0,0,126.82,106.95Zm-2.41,7.14a15.09,15.09,0,0,1-6.09,6.85c-1.13.71-2.24,1.38-3.28,2.14A103.16,103.16,0,0,0,120.6,110c.25-.73-.9-1-1.15-.32A101.07,101.07,0,0,1,114.22,122,67,67,0,0,1,123.51,99c.29,1.94,1.21,3.68,1.72,5.66A14.69,14.69,0,0,1,124.41,114.09Z" fill="#37b596"/><path d="M111.34,140c-.9-2.44-1.84-4.9-3-7.26a.61.61,0,0,0-.25-.58l0,0a27.75,27.75,0,0,0-5.57-7.8C98,120,92.07,119,86.11,118.29c-.6-.07-.72.66-.37,1a.56.56,0,0,0,.26.35c3.55,2.2,2.51,7.81,6.27,9.88,1.76,1,3.91.68,5.84.76A18,18,0,0,1,105.5,132a17.31,17.31,0,0,1,4.08,7.89A10.05,10.05,0,0,0,111.34,140ZM95,123.69c-.72-.26-1,.89-.32,1.15a28.07,28.07,0,0,1,8.68,5,17.35,17.35,0,0,0-1.89-.43c-2.51-.41-6.34.38-8.56-.91-3.09-1.79-2.8-6.18-5-8.79,5.37.72,10.48,2,14.44,6.08a25.28,25.28,0,0,1,3.69,5A28.22,28.22,0,0,0,95,123.69Z" fill="#37b596"/><path d="M224.15,245.44a6.38,6.38,0,0,0-1.73,2.56c-.32,1.29-3.09,8.27-1.65,8.29s8.88-2.75,9.15-4,2.46-9.3,2.46-9.3,0,4.12.52,4,0-10.84,0-10.84" fill="#16242d"/><path d="M243.16,244.26c0,1.72.8,13.37,0,13.86s-1.88-5.66-1.88-5.66" fill="#16242d"/><path d="M238,246.59s-4.46,8.66-5.13,11.88c-.78,3.74-1.85,9.11,0,8s7.16-4.89,8.21-6.68c2.05-3.47,2.05-13.78,2.05-13.78" fill="#16242d"/><path d="M232.9,200.41c.21.82,1.85,7.59,2.46,12.52s3.28,30.38,2.67,33.67-4.52,9.24-3.9,10.88a4,4,0,0,0,2.26,2.21s3.28.67,4.72-2,2.05-10.67,2.05-11.7,4.52-22.38,3.28-27.92-1.85-21.57-1.85-21.57Z" fill="#f4b389"/><path d="M236.59,207.18c-1.23-5.54-1.85-21.57-1.85-21.57l-4.95,1.66s0,.06,0,.1a2.67,2.67,0,0,1,1.54,3.52c-1.26,3.59-3.73,6.33-5.5,9.63a3.63,3.63,0,0,1-.48.69c0,.28.08.56.11.83.62,4.93,3.28,30.38,2.67,33.67s-4.52,9.24-3.9,10.88a4,4,0,0,0,2.26,2.21s3.28.67,4.72-2,2.05-10.67,2.05-11.7S237.82,212.72,236.59,207.18Z" fill="#f4b389"/><path d="M224,147.73,225.24,202s2.66,9.59,20.46,5.63a188.18,188.18,0,0,0,1.29-19c0-8.41,7.57-18.73-.74-32.89C237.36,140.66,224,147.73,224,147.73Z" fill="#5e331f"/><path d="M194.41,109.81c-1.41.06-.89,1.48-.89,1.48s-2.75-2.11-4.86-1.45c-1.11,1.62-.86,5.65.35,8a27.15,27.15,0,0,0,12.15,3.3l.51-4S195.82,109.75,194.41,109.81Z" fill="#f4b389"/><path d="M193.52,111.28s.9,6.61-.68,7.13l-1.11.72s1.56.67,2-.08S195.5,114,193.52,111.28Z" fill="#42210b"/><path d="M233.73,158.85c4.73,1.31,10,2.39,14.39-.44,7.28-33.8,1.94-44.28-10.63-48.28-5-1.58-10.14,1.33-12.58,5.82-1.39,13-.63,26.41-.7,39.45,0,.66,2.27,1,2.84,1.23a43.47,43.47,0,0,0,5.21,1.8Z" fill="#ffa197"/><path d="M226.16,114.38s-8,11.34-24.29.2c0,0-5.6,6.8-4.69,7.84s18.4,14.43,26.72,7.17" fill="#ffa197"/><path d="M223.2,121.85c-.47-.22.78,25.88.78,25.88l14.66,5.87L238,137.27l-.89-9.73S223.67,122.06,223.2,121.85Z" fill="#fd6868" class="target-color"/><path d="M238.47,140.9c-.15-.08-.09-.73-.07-1.58a13.75,13.75,0,0,0-3.71-1.38c-2.18-.18-5.64-.39-6.55,0-1.35.59-.76,2.53-.76,2.53s-2.11.06-1.77,1.51a2,2,0,0,0,1.6,1.59s-1.6,1.21-.68,2.23l.93,1a3.87,3.87,0,0,0,.83,2.1c.76.84,9.3-1,9.3-1l3.61,2.77.43-7.54S238.92,141.16,238.47,140.9Z" fill="#f4b389"/><path d="M234.47,140.32a44.74,44.74,0,0,1-7.19-.13c-.25,0-.25.36,0,.39a44.74,44.74,0,0,0,7.19.13C234.71,140.69,234.72,140.3,234.47,140.32Z" fill="#42210b"/><path d="M234.81,142.88a34,34,0,0,1-7.92.81.19.19,0,0,0,0,.39,34.49,34.49,0,0,0,8-.83C235.15,143.2,235.05,142.82,234.81,142.88Z" fill="#42210b"/><path d="M234.42,145.57a39.54,39.54,0,0,1-7,1.15.19.19,0,0,0,0,.39,40,40,0,0,0,7.12-1.17C234.77,145.89,234.66,145.52,234.42,145.57Z" fill="#42210b"/><path d="M230.13,110.83s-3.38,4.17-1.11,6.92,5.11,0,5.11,0-.07,2.37,2.94,2.27,6.13-5.2,6.13-5.2" fill="#fff"/><path d="M231.93,110.76h0s-.72,6.57,4.28,4.62a41.78,41.78,0,0,0,6.11-3v-4" fill="#cc6c62"/><path d="M248.55,115.74c.59.61,14.31,17,15.94,23.93s-10.39,12.81-23.3,11l.43-7.54,7.47-3.49-3.44-4" fill="#ffa197"/><path d="M228.77,96.88s-2.42,13.11,3.08,15.23,10.56-7.79,10.57-10.84C242.41,94.94,236.13,95.48,228.77,96.88Z" fill="#f4b389"/><path d="M260.21,130.34a4.19,4.19,0,0,0-1-2.25c-1.13-1.3-2.94-1.86-3.92-3.31-1.59-2.37,1-4.46,1.17-6.8.36-4.32-5.22-4.83-7.65-7a8.32,8.32,0,0,1-2.24-4.31c-1.39-5-1.68-11.12-6.55-14.19A10.52,10.52,0,0,0,235,91.16a9.64,9.64,0,0,0-6.07,1.3,6.42,6.42,0,0,0-2.73,4.75c-.09,1.36.34,3.52,2,3.72,1.09.13,1.64-.71,2.32-1.38s1.23-1.72,2-2.45a3.57,3.57,0,0,1,1.84-1c2.77-.43.27,4.54.22,5.61a2.39,2.39,0,0,0,.47,1.61,3.18,3.18,0,0,0,1.68.94c1.33.37,3.63,1,2.82,2.94-.45,1-1.49,1.86-2.05,2.87a5.74,5.74,0,0,0,.22,6.61,14,14,0,0,0,2.62,2.38,4.63,4.63,0,0,1,2,3.1c0,.08,0,.15,0,.23-.26,2-1.11,4.6-1,6.85a4,4,0,0,0,.58,2.33,7.14,7.14,0,0,0,1.68,2.14,11.25,11.25,0,0,0,10.71,2.18c1.82-.54,3.92-1.24,5.17-2.77A3.72,3.72,0,0,0,260.21,130.34ZM255.8,118a4.56,4.56,0,0,0,0-.85,4,4,0,0,0-.14-.63A3.11,3.11,0,0,1,255.8,118Z" fill="#5e331f"/><path d="M253.64,138.83a28.6,28.6,0,0,1-12,3.52.63.63,0,0,0-.62.62l.12,7.19a.59.59,0,0,0,.56.59l-.51-.05,6.91,3.23.67-2.91a63,63,0,0,1-7-.26.57.57,0,0,0,.6-.6l-.11-6.63a30.14,30.14,0,0,0,12-3.63C255,139.52,254.34,138.44,253.64,138.83Z" fill="#cc6c62"/><path d="M192.33,110.68l-7.21-42a.62.62,0,0,0-1.23.21L191,110.06A5.52,5.52,0,0,1,192.33,110.68Z" fill="#fff"/><path d="M200.25,59,204,73.32l-1.63-.81L201.23,68,197,65.93l-1.3,3.28-1.57-.78,4.25-10.36Zm-2.87,5.86,3.55,1.76-1.08-4.12c-.25-.94-.41-1.76-.58-2.56l0,0c-.19.65-.4,1.3-.63,1.94l-1.22,3" fill="#fff"/><path d="M210.93,70.05a5.7,5.7,0,0,1,2.38,4.3,2,2,0,0,1-1.05,2c-.84.38-2.17.09-4.1-.86a25.43,25.43,0,0,1-2.36-1.32L206,62a17.51,17.51,0,0,1,2.79,1.12,8.35,8.35,0,0,1,3.23,2.5A4.22,4.22,0,0,1,213,68.3,1.66,1.66,0,0,1,210.93,70Zm-2.31,4.38c1.57.78,3,.9,3.07-.9s-1.34-3.06-3-3.89L207.43,69l-.09,4.71a12.25,12.25,0,0,0,1.28.71m-1.09-10.59-.08,4,1.39.69c1.61.8,2.57.38,2.6-.81,0-1.45-1-2.54-2.55-3.3a7.24,7.24,0,0,0-1.35-.55" fill="#fff"/><path d="M221,69.05a10.35,10.35,0,0,1,2.8,1.93l-.39,1.12A9.08,9.08,0,0,0,221,70.41c-2.77-1.37-4.64-.43-4.71,2.81a7.79,7.79,0,0,0,4.44,7.21,6.27,6.27,0,0,0,2.5.72l.29,1.41a7.6,7.6,0,0,1-3.13-1,10.07,10.07,0,0,1-5.71-9.13C214.78,68.62,217.34,67.24,221,69.05Z" fill="#fff"/></g></g></svg>